<svg width="19" height="19" viewBox="0 0 19 19" fill="none" xmlns="http://www.w3.org/2000/svg">
<path d="M9.12793 0.0996094C14.114 0.0996259 18.1562 4.14183 18.1562 9.12793C18.1562 14.114 14.114 18.1562 9.12793 18.1562C4.14183 18.1562 0.0996259 14.114 0.0996094 9.12793C0.0996094 4.14182 4.14182 0.0996094 9.12793 0.0996094ZM6.72168 12.8037C6.9084 13.5486 7.15224 14.2264 7.44336 14.8105C7.73325 15.3899 8.03636 15.816 8.32227 16.0986C8.60512 16.3782 8.88464 16.5303 9.12793 16.5303C9.37122 16.5303 9.65075 16.3782 9.93359 16.0986C10.2195 15.816 10.5216 15.3898 10.8115 14.8105H10.8125C11.1036 14.2264 11.3475 13.5486 11.5342 12.8037L11.5654 12.6787H6.69043L6.72168 12.8037ZM2.71582 12.8291C3.4629 14.1194 4.58073 15.1554 5.92383 15.8027L6.19434 15.9336L6.05566 15.667C5.62958 14.8482 5.28227 13.8616 5.04102 12.7578L5.02441 12.6787H2.62891L2.71582 12.8291ZM13.2148 12.7578C12.9736 13.8615 12.6254 14.8481 12.2002 15.667L12.0615 15.9336L12.332 15.8027C13.6751 15.1554 14.793 14.1194 15.54 12.8291L15.627 12.6787H13.2314L13.2148 12.7578ZM1.95898 7.27734C1.80355 7.88188 1.72498 8.50373 1.72559 9.12793L1.72949 9.36621C1.74714 9.92068 1.8262 10.4603 1.95898 10.9785L1.97754 11.0537H4.76562L4.75488 10.9434C4.63356 9.7361 4.63356 8.51976 4.75488 7.3125L4.76562 7.20215H1.97852L1.95898 7.27734ZM6.39258 7.29102C6.32423 7.90086 6.28923 8.51427 6.28906 9.12793C6.28906 9.75685 6.32458 10.3722 6.39258 10.9648L6.40234 11.0537H11.8535L11.8633 10.9648C12.0013 9.74419 12.0013 8.51167 11.8633 7.29102L11.8535 7.20215H6.40234L6.39258 7.29102ZM13.501 7.3125C13.6223 8.51975 13.6223 9.73611 13.501 10.9434L13.4902 11.0537H16.2773L16.2969 10.9785C16.6082 9.76455 16.6082 8.49131 16.2969 7.27734L16.2773 7.20215H13.4902L13.501 7.3125ZM5.92383 2.45312C4.58073 3.10049 3.4629 4.13646 2.71582 5.42676L2.62891 5.57715H5.02441L5.04102 5.49805C5.28226 4.39432 5.63043 3.40773 6.05566 2.58887L6.19434 2.32227L5.92383 2.45312ZM9.12793 1.72559C8.88464 1.72559 8.60512 1.87765 8.32227 2.15723C8.03637 2.43986 7.73324 2.86601 7.44336 3.44531C7.15224 4.02948 6.90839 4.70722 6.72168 5.45215L6.69043 5.57715H11.5645L11.5342 5.45312C11.3661 4.76027 11.1242 4.08747 10.8125 3.44629L10.8115 3.44531L10.7031 3.23438C10.4472 2.761 10.1837 2.4045 9.93359 2.15723C9.65075 1.87766 9.37122 1.7256 9.12793 1.72559ZM12.2002 2.58887C12.6263 3.40764 12.9736 4.39426 13.2148 5.49805L13.2314 5.57715H15.627L15.54 5.42676C14.793 4.13646 13.6751 3.10049 12.332 2.45312L12.0615 2.32227L12.2002 2.58887Z" fill="white" stroke="black" stroke-width="0.2"/>
</svg>
