<svg width="16" height="16" viewBox="0 0 16 16" fill="none" xmlns="http://www.w3.org/2000/svg">
<path d="M12.2096 2.85059C11.6928 2.85059 11.2737 3.26967 11.2737 3.78653C11.2737 4.30349 11.6928 4.72258 12.2096 4.72258C12.7266 4.72258 13.1457 4.30349 13.1457 3.78653C13.1457 3.26967 12.7266 2.85059 12.2096 2.85059Z" fill="white"/>
<path d="M8.04837 4.05078C5.88032 4.05078 4.11646 5.81456 4.11646 7.98261C4.11646 10.1506 5.88032 11.9144 8.04837 11.9144C10.2163 11.9144 11.9802 10.1506 11.9802 7.98261C11.9802 5.81456 10.2163 4.05078 8.04837 4.05078ZM8.04837 10.5012C6.65954 10.5012 5.5297 9.37144 5.5297 7.98261C5.5297 6.59377 6.65954 5.46402 8.04837 5.46402C9.43711 5.46402 10.5669 6.59377 10.5669 7.98261C10.5669 9.37144 9.43711 10.5012 8.04837 10.5012Z" fill="white"/>
<path d="M11.1698 15.9657H4.7956C2.15129 15.9657 0 13.8144 0 11.1701V4.7956C0 2.15119 2.15129 0 4.7956 0H11.1698C13.8141 0 15.9657 2.15119 15.9657 4.7956V11.1701C15.9657 13.8144 13.8141 15.9657 11.1698 15.9657ZM4.7956 1.50208C2.97939 1.50208 1.50199 2.97939 1.50199 4.7956V11.1701C1.50199 12.9863 2.97939 14.4637 4.7956 14.4637H11.1698C12.986 14.4637 14.4636 12.9863 14.4636 11.1701V4.7956C14.4636 2.97939 12.986 1.50208 11.1698 1.50208H4.7956Z" fill="white"/>
</svg>
