<svg width="13" height="13" viewBox="0 0 13 13" fill="none" xmlns="http://www.w3.org/2000/svg">
<path d="M0.209728 4.20991H2.84705V12.6818H0.209728V4.20991ZM1.52881 0C2.37219 0 3.05557 0.684219 3.05557 1.52573C3.05557 2.36846 2.37219 3.05371 1.52881 3.05371C0.68329 3.05371 0 2.36846 0 1.52573C0 0.684219 0.68329 0 1.52881 0Z" fill="white"/>
<path d="M4.49902 4.20973H7.02497V5.36854H7.05952C7.41173 4.70183 8.27066 4 9.55315 4C12.2193 4 12.7109 5.75344 12.7109 8.03511V12.6816H10.0794V8.56277C10.0794 7.57952 10.0602 6.31612 8.71079 6.31612C7.34002 6.31612 7.13095 7.38628 7.13095 8.49098V12.6816H4.49902V4.20973Z" fill="white"/>
</svg>
