<?xml version="1.0" encoding="UTF-8"?>
<svg id="Layer_1" data-name="Layer 1" xmlns="http://www.w3.org/2000/svg" viewBox="0 0 1600 1095.5">
  <defs>
    <style>
      .cls-1 {
        fill: #fff;
      }
    </style>
  </defs>
  <path d="M1556.76,0H14.97C6.7,0,0,6.7,0,14.97v1065.56c0,8.27,6.7,14.97,14.97,14.97h1570.06c8.27,0,14.97-6.7,14.97-14.97V14.97C1600,6.7,1593.3,0,1585.03,0h-28.27Z"/>
  <g>
    <rect class="cls-1" x="353.5" y="523.23" width="670.23" height="271.8" rx="14.97" ry="14.97" transform="translate(-264.39 679.98) rotate(-45)"/>
    <rect class="cls-1" x="916.35" y="159.6" width="271.8" height="271.8" rx="14.97" ry="14.97" transform="translate(99.25 830.6) rotate(-45)"/>
  </g>
  <path class="cls-1" d="M586.61,47.63l-28.27,28.27c-5.85,5.85-15.32,5.85-21.17,0l-28.27-28.27c-2.81-2.81-6.61-4.38-10.58-4.38H58.21c-8.27,0-14.97,6.7-14.97,14.97v979.07c0,8.27,6.7,14.97,14.97,14.97h219.91c8.27,0,14.97-6.7,14.97-14.97V329.23c0-13.34,16.12-20.02,25.55-10.58l218.52,218.52c5.85,5.85,15.32,5.85,21.17,0l468.37-468.37c9.43-9.43,2.75-25.55-10.58-25.55h-418.92c-3.97,0-7.78,1.58-10.58,4.38Z"/>
  <path class="cls-1" d="M1306.91,58.21v708.05c0,13.34-16.12,20.02-25.55,10.58l-218.52-218.52c-5.85-5.85-15.32-5.85-21.17,0l-468.37,468.37c-9.43,9.43-2.75,25.55,10.58,25.55h418.92c3.97,0,7.78-1.58,10.58-4.38l28.27-28.27c5.85-5.85,15.32-5.85,21.17,0l28.27,28.27c2.81,2.81,6.61,4.38,10.58,4.38h440.09c8.27,0,14.97-6.7,14.97-14.97V58.21c0-8.27-6.7-14.97-14.97-14.97h-219.91c-8.27,0-14.97,6.7-14.97,14.97Z"/>
</svg>