<svg width="16" height="13" viewBox="0 0 16 13" fill="none" xmlns="http://www.w3.org/2000/svg">
<path d="M1.55912 12.473C1.13036 12.473 0.763451 12.3205 0.458382 12.0154C0.153314 11.7103 0.000519708 11.3431 0 10.9139V1.55912C0 1.13036 0.152794 0.763451 0.458382 0.458382C0.763971 0.153314 1.13088 0.000519708 1.55912 0H14.0321C14.4609 0 14.828 0.152794 15.1336 0.458382C15.4392 0.763971 15.5918 1.13088 15.5912 1.55912V10.9139C15.5912 11.3426 15.4387 11.7098 15.1336 12.0154C14.8286 12.321 14.4614 12.4735 14.0321 12.473H1.55912ZM14.0321 3.11825L8.20489 6.7627C8.13993 6.80168 8.07184 6.83104 8.00064 6.85079C7.92944 6.87054 7.8611 6.88015 7.79562 6.87963C7.73014 6.87911 7.66206 6.8695 7.59137 6.85079C7.52069 6.83208 7.45235 6.80272 7.38635 6.7627L1.55912 3.11825V10.9139H14.0321V3.11825ZM7.79562 5.45693L14.0321 1.55912H1.55912L7.79562 5.45693ZM1.55912 3.31314V2.16328V2.18277V2.17342V3.31314Z" fill="white"/>
</svg>
